<?xml version="1.0" encoding="UTF-8" standalone="no"?>
<!-- Created with Inkscape (http://www.inkscape.org/) -->

<svg
   width="210mm"
   height="297mm"
   viewBox="0 0 210 297"
   version="1.1"
   id="svg5"
   inkscape:export-filename="abstract_highRes.png"
   inkscape:export-xdpi="150"
   inkscape:export-ydpi="150"
   inkscape:version="1.2.1 (9c6d41e, 2022-07-14)"
   sodipodi:docname="abstract.svg"
   xmlns:inkscape="http://www.inkscape.org/namespaces/inkscape"
   xmlns:sodipodi="http://sodipodi.sourceforge.net/DTD/sodipodi-0.dtd"
   xmlns="http://www.w3.org/2000/svg"
   xmlns:svg="http://www.w3.org/2000/svg">
  <sodipodi:namedview
     id="namedview7"
     pagecolor="#ffffff"
     bordercolor="#000000"
     borderopacity="0.25"
     inkscape:showpageshadow="2"
     inkscape:pageopacity="0.0"
     inkscape:pagecheckerboard="0"
     inkscape:deskcolor="#d1d1d1"
     inkscape:document-units="mm"
     showgrid="false"
     showguides="true"
     inkscape:zoom="1.1472747"
     inkscape:cx="234.90452"
     inkscape:cy="-32.250342"
     inkscape:window-width="1621"
     inkscape:window-height="908"
     inkscape:window-x="1982"
     inkscape:window-y="1503"
     inkscape:window-maximized="0"
     inkscape:current-layer="layer2">
    <sodipodi:guide
       position="0,297"
       orientation="1,0"
       id="guide1412"
       inkscape:locked="false" />
    <sodipodi:guide
       position="0,297.00001"
       orientation="0,-1"
       id="guide1464"
       inkscape:locked="false" />
    <sodipodi:guide
       position="0,247"
       orientation="0,1"
       id="guide1466"
       inkscape:locked="false"
       inkscape:label=""
       inkscape:color="rgb(0,134,229)" />
    <sodipodi:guide
       position="100,297"
       orientation="-1,0"
       id="guide2194"
       inkscape:locked="false"
       inkscape:label=""
       inkscape:color="rgb(0,134,229)" />
    <sodipodi:guide
       position="-4.480621,274.73268"
       orientation="1,0"
       id="guide4184"
       inkscape:locked="false" />
  </sodipodi:namedview>
  <defs
     id="defs2" />
  <g
     inkscape:label="Layer 1"
     inkscape:groupmode="layer"
     id="layer1"
     sodipodi:insensitive="true">
    <rect
       style="fill:#000000;fill-opacity:1;stroke:none;stroke-width:0.797999;stroke-opacity:1"
       id="rect3028"
       width="100"
       height="50.000008"
       x="0"
       y="-9.2207119e-06" />
    <ellipse
       style="fill:none;stroke:#ffffff;stroke-width:0.797999;stroke-opacity:1"
       id="path2974-0"
       cx="37.313236"
       cy="15.503977"
       rx="12.287764"
       ry="9.0970182" />
    <ellipse
       style="fill:none;stroke:#ffffff;stroke-width:0.659692;stroke-opacity:1"
       id="path2974-2"
       cx="31.950069"
       cy="29.590925"
       rx="6.9937496"
       ry="10.922935" />
    <ellipse
       style="fill:none;stroke:#ffffff;stroke-width:0.512888;stroke-opacity:1"
       id="path2974-6"
       cx="11.472868"
       cy="-18.009621"
       rx="6.7277107"
       ry="6.8634868"
       transform="rotate(78.370264)" />
    <ellipse
       style="fill:none;stroke:#ffffff;stroke-width:0.833912;stroke-opacity:1"
       id="path2974-9"
       cx="14.604564"
       cy="-0.53247422"
       rx="13.41865"
       ry="9.0970182"
       transform="matrix(0.57815884,0.81592423,-0.97947076,0.20158628,0,0)" />
    <ellipse
       style="fill:none;stroke:#ffffff;stroke-width:0.843418;stroke-opacity:1"
       id="path2974-0-5"
       cx="64.028809"
       cy="21.415682"
       rx="12.304298"
       ry="10.148376"
       transform="matrix(0.98514672,0.17171472,-0.76791992,0.64054586,0,0)" />
    <ellipse
       style="fill:none;stroke:#ffffff;stroke-width:0.69724;stroke-opacity:1"
       id="path2974-2-6"
       cx="58.658421"
       cy="37.13068"
       rx="7.0031605"
       ry="12.185316"
       transform="matrix(0.98514672,0.17171472,-0.76791992,0.64054586,0,0)" />
    <ellipse
       style="fill:none;stroke:#ffffff;stroke-width:0.646398;stroke-opacity:1"
       id="path2974-4-2"
       cx="49.621742"
       cy="-34.697987"
       rx="7.8908081"
       ry="9.294919"
       transform="matrix(0.15585484,0.98777997,-0.95860734,0.28473141,0,0)" />
    <ellipse
       style="fill:none;stroke:#ffffff;stroke-width:0.684801;stroke-opacity:1"
       id="path2974-2-3-8"
       cx="48.166782"
       cy="-73.849197"
       rx="6.2761302"
       ry="13.116083"
       transform="matrix(-0.57676745,0.81690838,-0.99904015,0.04380389,0,0)" />
    <ellipse
       style="fill:none;stroke:#ffffff;stroke-width:0.540367;stroke-opacity:1"
       id="path2974-6-9-5"
       cx="17.175032"
       cy="-65.68943"
       rx="6.5555491"
       ry="7.8187079"
       transform="matrix(-0.65703715,0.7538582,-0.9997712,-0.0213904,0,0)" />
    <ellipse
       style="fill:none;stroke:#ffffff;stroke-width:0.665813;stroke-opacity:1"
       id="path2974-4-8-5-9"
       cx="-14.886725"
       cy="-56.963799"
       rx="16.640982"
       ry="4.6761918"
       transform="matrix(-0.90829738,0.41832507,-0.71463224,-0.69950037,0,0)" />
    <ellipse
       style="fill:none;stroke:#ffffff;stroke-width:0.659692;stroke-opacity:1"
       id="path2974-2-3"
       cx="42.087818"
       cy="-37.24128"
       rx="6.9937496"
       ry="10.922935"
       transform="rotate(72.366377)" />
    <ellipse
       style="fill:none;stroke:#ffffff;stroke-width:0.405096;stroke-opacity:1"
       id="path2974-6-5"
       cx="-0.36324"
       cy="27.585318"
       rx="5.0170379"
       ry="5.7416296"
       transform="matrix(-0.96123185,0.27574142,0.27574142,0.96123185,0,0)" />
    <ellipse
       style="fill:none;stroke:#ffffff;stroke-width:0.665416;stroke-opacity:1"
       id="path2974-9-4"
       cx="1.1750861"
       cy="37.815643"
       rx="10.21326"
       ry="7.6100836"
       transform="matrix(-0.98419076,-0.17711166,0.27574142,0.96123185,0,0)" />
    <ellipse
       style="fill:none;stroke:#ffffff;stroke-width:0.552445;stroke-opacity:1"
       id="path2974-4-36"
       cx="26.63409"
       cy="36.372223"
       rx="9.878953"
       ry="5.4229264"
       transform="matrix(-0.43846888,0.89874637,0.84267786,0.53841808,0,0)" />
    <ellipse
       style="fill:none;stroke:#ffffff;stroke-width:0.521622;stroke-opacity:1"
       id="path2974-2-3-5"
       cx="46.033794"
       cy="16.149872"
       rx="5.7952151"
       ry="8.2415419"
       transform="matrix(0.00324319,0.99999474,0.99800604,0.06311855,0,0)" />
    <ellipse
       style="fill:none;stroke:#ffffff;stroke-width:0.512888;stroke-opacity:1"
       id="path2974-6-7"
       cx="61.461231"
       cy="-64.456116"
       rx="6.7277107"
       ry="6.8634868"
       transform="rotate(72.366377)" />
    <ellipse
       style="fill:none;stroke:#ffffff;stroke-width:0.833912;stroke-opacity:1"
       id="path2974-9-8"
       cx="69.193527"
       cy="-25.044548"
       rx="13.41865"
       ry="9.0970182"
       transform="matrix(0.66032989,0.75097566,-0.95301306,0.3029292,0,0)" />
    <ellipse
       style="fill:none;stroke:#ffffff;stroke-width:0.512888;stroke-opacity:1"
       id="path2974-6-9"
       cx="8.6406803"
       cy="-32.325703"
       rx="6.7277107"
       ry="6.8634868"
       transform="rotate(78.370264)" />
    <ellipse
       style="fill:none;stroke:#ffffff;stroke-width:0.697145;stroke-opacity:1"
       id="path2974-4-9"
       cx="-5.8145947"
       cy="-6.9641438"
       rx="12.473968"
       ry="6.8392467"
       transform="rotate(123.07097)" />
    <ellipse
       style="fill:none;stroke:#ffffff;stroke-width:0.797999;stroke-opacity:1"
       id="path2974-0-1-1"
       cx="1.4498571"
       cy="-21.163153"
       rx="12.287764"
       ry="9.0970182"
       transform="rotate(150.73664)" />
    <ellipse
       style="fill:none;stroke:#ffffff;stroke-width:0.659692;stroke-opacity:1"
       id="path2974-2-3-7"
       cx="-3.9133115"
       cy="-7.0761981"
       rx="6.9937496"
       ry="10.922935"
       transform="rotate(150.73664)" />
    <ellipse
       style="fill:none;stroke:#ffffff;stroke-width:0.697145;stroke-opacity:1"
       id="path2974-4-8-5"
       cx="24.128218"
       cy="-59.852116"
       rx="12.473968"
       ry="6.8392467"
       transform="rotate(117.06709)" />
    <ellipse
       style="fill:none;stroke:#ffffff;stroke-width:0.662832;stroke-opacity:1"
       id="path2974-2-8"
       cx="51.12426"
       cy="72.452812"
       rx="8.8994179"
       ry="8.665884"
       transform="matrix(0.78560546,-0.61872778,0.50511224,0.86305366,0,0)" />
    <ellipse
       style="fill:none;stroke:#ffffff;stroke-width:0.51533;stroke-opacity:1"
       id="path2974-6-1"
       cx="75.776573"
       cy="50.861488"
       rx="8.5608883"
       ry="5.4452567"
       transform="matrix(0.78560546,-0.61872778,0.50511224,0.86305366,0,0)" />
    <ellipse
       style="fill:none;stroke:#ffffff;stroke-width:0.83029;stroke-opacity:1"
       id="path2974-9-5"
       cx="83.851593"
       cy="81.46402"
       rx="16.76697"
       ry="7.2172642"
       transform="matrix(0.60374685,-0.7971761,0.50511224,0.86305366,0,0)" />
    <ellipse
       style="fill:none;stroke:#ffffff;stroke-width:0.736598;stroke-opacity:1"
       id="path2974-4-3"
       cx="97.761253"
       cy="28.89999"
       rx="12.417781"
       ry="7.6698036"
       transform="matrix(0.99692671,-0.07833988,-0.37302836,0.92781994,0,0)" />
    <ellipse
       style="fill:none;fill-opacity:1;stroke:#ffffff;stroke-width:0.5;stroke-dasharray:none;stroke-opacity:1"
       id="path3703"
       cx="44.520443"
       cy="-37.112167"
       rx="9.7758999"
       ry="4.0054035"
       transform="rotate(46.473399)" />
    <ellipse
       style="fill:none;stroke:#ffffff;stroke-width:0.495864;stroke-opacity:1"
       id="path2974-4-6"
       cx="17.423929"
       cy="-56.77121"
       rx="8.885891"
       ry="4.8572502"
       transform="matrix(0.60018766,-0.79985922,-0.93941103,-0.34279281,0,0)" />
    <ellipse
       style="fill:none;stroke:#ffffff;stroke-width:0.462522;stroke-opacity:1"
       id="path2974-2-3-6"
       cx="-6.8255692"
       cy="-67.831825"
       rx="4.3466778"
       ry="8.6392307"
       transform="matrix(0.11084382,-0.99383784,-0.99808394,0.06187449,0,0)" />
    <ellipse
       style="fill:none;stroke:#ffffff;stroke-width:0.492256;stroke-opacity:1"
       id="path2974-4-8-5-7"
       cx="-48.078999"
       cy="-42.370422"
       rx="8.0846548"
       ry="5.26122"
       transform="matrix(-0.78119131,-0.62429171,-0.79239304,0.61001088,0,0)" />
    <ellipse
       style="fill:none;fill-opacity:1;stroke:#ffffff;stroke-width:0.35562;stroke-dasharray:none;stroke-opacity:1"
       id="path3703-8"
       cx="12.683939"
       cy="-74.47715"
       rx="6.9014325"
       ry="2.8700943"
       transform="matrix(0.57609662,-0.8173816,-0.94909403,-0.31499289,0,0)" />
    <ellipse
       style="fill:none;stroke:#ffffff;stroke-width:0.797999;stroke-opacity:1"
       id="path2974-0-4"
       cx="82.780342"
       cy="38.326153"
       rx="12.287764"
       ry="9.0970182" />
    <ellipse
       style="fill:none;stroke:#ffffff;stroke-width:0.697145;stroke-opacity:1"
       id="path2974-4-1"
       cx="92.716835"
       cy="-32.13797"
       rx="12.473968"
       ry="6.8392467"
       transform="rotate(44.700709)" />
    <ellipse
       style="fill:none;stroke:#ffffff;stroke-width:0.659692;stroke-opacity:1"
       id="path2974-2-3-71"
       cx="71.664726"
       cy="-75.121216"
       rx="6.9937496"
       ry="10.922935"
       transform="rotate(72.366377)" />
    <ellipse
       style="fill:none;stroke:#ffffff;stroke-width:0.697145;stroke-opacity:1"
       id="path2974-4-8-5-8"
       cx="-7.9521403"
       cy="-105.64922"
       rx="12.473968"
       ry="6.8392467"
       transform="rotate(117.06709)" />
    <ellipse
       style="fill:none;stroke:#ffffff;stroke-width:0.736598;stroke-opacity:1"
       id="path2974-4-3-7"
       cx="151.39426"
       cy="51.44083"
       rx="12.417781"
       ry="7.6698036"
       transform="matrix(0.99692671,-0.07833988,-0.37302836,0.92781994,0,0)" />
    <ellipse
       style="fill:none;fill-opacity:1;stroke:#ffffff;stroke-width:0.35562;stroke-dasharray:none;stroke-opacity:1"
       id="path3703-8-8"
       cx="10.941456"
       cy="-123.01146"
       rx="6.9014325"
       ry="2.8700943"
       transform="matrix(0.57609662,-0.8173816,-0.94909403,-0.31499289,0,0)" />
    <path
       style="fill:none;fill-opacity:1;stroke:#ffffff;stroke-width:0.5;stroke-dasharray:none;stroke-opacity:1"
       d="M 43.719998,-4.0732919 60.420495,61.77826"
       id="path4093" />
    <path
       style="fill:none;fill-opacity:1;stroke:#ffffff;stroke-width:0.249;stroke-dasharray:none;stroke-opacity:1"
       d="M 115.13686,-4.3997048 -1.8993443,66.585293"
       id="path4093-5" />
    <path
       style="fill:none;fill-opacity:1;stroke:#ffffff;stroke-width:0.407;stroke-dasharray:none;stroke-opacity:1"
       d="M 12.851953,-6.1616174 109.21103,40.105717"
       id="path4093-4" />
    <path
       style="fill:none;fill-opacity:1;stroke:#ffffff;stroke-width:0.48004;stroke-dasharray:none;stroke-opacity:1"
       d="m -12.046745,30.587688 114.416285,2.56893"
       id="path4093-1" />
    <path
       style="fill:none;fill-opacity:1;stroke:#ffffff;stroke-width:0.414151;stroke-dasharray:none;stroke-opacity:1"
       d="M 17.797174,-10.811494 28.003849,63.112794"
       id="path4093-2" />
    <path
       style="fill:none;fill-opacity:1;stroke:#ffffff;stroke-width:0.337119;stroke-dasharray:none;stroke-opacity:1"
       d="M -1.0681367,-13.155827 57.822669,38.783417"
       id="path4093-4-4" />
    <path
       style="fill:none;fill-opacity:1;stroke:#ffffff;stroke-width:0.407;stroke-dasharray:none;stroke-opacity:1"
       d="M 22.934475,57.036627 96.986136,-20.048329"
       id="path4093-4-9" />
  </g>
  <g
     inkscape:groupmode="layer"
     id="layer2"
     inkscape:label="Layer 2">
    <path
       style="fill:none;fill-opacity:1;stroke:#ffffff;stroke-width:0.249;stroke-dasharray:none;stroke-opacity:1"
       d="m 29.870807,58.383849 c 0.543105,0 10.047454,-62.3213644 10.047454,-62.3213644"
       id="path4178" />
    <path
       style="fill:none;fill-opacity:1;stroke:#ffffff;stroke-width:0.249;stroke-dasharray:none;stroke-opacity:1"
       d="m -5.7026084,12.084099 c 0,0 63.4075764,30.957018 64.7653384,33.536769"
       id="path4180" />
    <path
       style="fill:none;fill-opacity:1;stroke:#ffffff;stroke-width:0.249;stroke-dasharray:none;stroke-opacity:1"
       d="M 57.569192,61.506708 C 58.926954,59.87739 70.739502,-6.6530433 70.739502,-6.6530433"
       id="path4182" />
    <path
       style="fill:none;fill-opacity:1;stroke:#ffffff;stroke-width:0.249;stroke-dasharray:none;stroke-opacity:1"
       d="M -9.3685711,18.329813 61.506708,-2.715528"
       id="path4186" />
    <path
       style="fill:none;fill-opacity:1;stroke:#ffffff;stroke-width:0.249;stroke-dasharray:none;stroke-opacity:1"
       d="M -10.590559,40.868695 C -9.6401241,40.732919 112.1513,21.859999 112.1513,21.859999"
       id="path4188" />
    <path
       style="fill:none;fill-opacity:1;stroke:#ffffff;stroke-width:0.249;stroke-dasharray:none;stroke-opacity:1"
       d="M 67.073538,55.668322 109.70733,8.6896891"
       id="path4190" />
    <path
       style="fill:none;fill-opacity:1;stroke:#ffffff;stroke-width:0.249;stroke-dasharray:none;stroke-opacity:1"
       d="M 91.649067,61.099376 C 91.513288,57.569192 87.983104,-16.56472 87.983104,-16.56472"
       id="path4192" />
    <path
       style="fill:none;fill-opacity:1;stroke:#ffffff;stroke-width:0.249;stroke-dasharray:none;stroke-opacity:1"
       d="m -14.120745,26.612172 c 0.678882,0 80.24385,-34.7587557 80.24385,-34.7587557"
       id="path4194" />
    <path
       style="fill:none;fill-opacity:1;stroke:#ffffff;stroke-width:0.249;stroke-dasharray:none;stroke-opacity:1"
       d="M 7.3319253,58.926954 -2.715528,-9.3685711"
       id="path4196" />
    <path
       style="fill:none;fill-opacity:1;stroke:#ffffff;stroke-width:0.249;stroke-dasharray:none;stroke-opacity:1"
       d="M 29.870807,-7.7392545 10.590559,58.248073"
       id="path4198" />
    <path
       style="fill:none;fill-opacity:1;stroke:#ffffff;stroke-width:0.249;stroke-dasharray:none;stroke-opacity:1"
       d="M 24.575527,64.76534 21.588447,-9.3685711"
       id="path4200" />
    <path
       style="fill:none;fill-opacity:1;stroke:#ffffff;stroke-width:0.249;stroke-dasharray:none;stroke-opacity:1"
       d="M -10.726335,10.590559 C -8.6896891,9.7759003 117.3108,18.329813 117.3108,18.329813"
       id="path4202" />
    <path
       style="fill:none;fill-opacity:1;stroke:#ffffff;stroke-width:0.249;stroke-dasharray:none;stroke-opacity:1"
       d="M 108.89267,32.450558 62.86447,-10.862111"
       id="path4204" />
    <path
       style="fill:none;fill-opacity:1;stroke:#ffffff;stroke-width:0.249;stroke-dasharray:none;stroke-opacity:1"
       d="m 85.539129,57.161863 c 0,-1.357765 -15.342732,-72.097266 -15.342732,-72.097266"
       id="path4206" />
    <path
       style="fill:none;fill-opacity:1;stroke:#ffffff;stroke-width:0.249;stroke-dasharray:none;stroke-opacity:1"
       d="M -17.379379,-19.823354 C 84.452917,57.161863 70.603726,57.840744 70.603726,57.840744"
       id="path4224" />
    <path
       style="fill:none;fill-opacity:1;stroke:#ffffff;stroke-width:0.249;stroke-dasharray:none;stroke-opacity:1"
       d="m 17.786708,60.692048 c 0.407329,-1.08621 23.489315,-79.42919 23.489315,-79.42919"
       id="path4226" />
    <path
       style="fill:none;fill-opacity:1;stroke:#ffffff;stroke-width:0.249;stroke-dasharray:none;stroke-opacity:1"
       d="M 6.3814906,-23.760869 C 6.2457141,-22.674658 23.081987,63.136022 23.081987,63.136022"
       id="path4228" />
    <path
       style="fill:none;fill-opacity:1;stroke:#ffffff;stroke-width:0.249;stroke-dasharray:none;stroke-opacity:1"
       d="m -10.454782,44.127327 c 7.6034778,-4.88795 79.157638,-60.013165 79.157638,-60.013165"
       id="path4230" />
    <path
       style="fill:none;fill-opacity:1;stroke:#ffffff;stroke-width:0.249;stroke-dasharray:none;stroke-opacity:1"
       d="M 47.657514,-11.133664 C 47.250185,-8.0108072 36.795403,54.853662 36.795403,54.853662"
       id="path4232" />
    <path
       style="fill:none;fill-opacity:1;stroke:#ffffff;stroke-width:0.249;stroke-dasharray:none;stroke-opacity:1"
       d="m 22.403105,-21.181117 c 2.715528,4.209068 35.980744,84.588692 35.980744,84.588692"
       id="path4234" />
    <path
       style="fill:none;fill-opacity:1;stroke:#ffffff;stroke-width:0.249;stroke-dasharray:none;stroke-opacity:1"
       d="m 34.62298,58.926954 c 9.232794,-7.4677 68.83863,-82.280494 68.83863,-82.280494"
       id="path4236" />
    <path
       style="fill:none;fill-opacity:1;stroke:#ffffff;stroke-width:0.249;stroke-dasharray:none;stroke-opacity:1"
       d="m 38.831686,47.401396 c 0.410324,0.355806 48.41976,-40.50223 48.41976,-40.50223"
       id="path4178-9" />
    <path
       style="fill:none;fill-opacity:1;stroke:#ffffff;stroke-width:0.249;stroke-dasharray:none;stroke-opacity:1"
       d="m 42.287968,-10.884013 c 0,0 27.624336,64.928836 26.960065,67.767388"
       id="path4180-5" />
    <path
       style="fill:none;fill-opacity:1;stroke:#ffffff;stroke-width:0.249;stroke-dasharray:none;stroke-opacity:1"
       d="M 57.712309,67.906879 C 59.805537,67.565422 112.31635,25.039555 112.31635,25.039555"
       id="path4182-3" />
    <path
       style="fill:none;fill-opacity:1;stroke:#ffffff;stroke-width:0.249;stroke-dasharray:none;stroke-opacity:1"
       d="M 35.42651,-8.5669831 102.76125,21.965694"
       id="path4186-3" />
    <path
       style="fill:none;fill-opacity:1;stroke:#ffffff;stroke-width:0.249;stroke-dasharray:none;stroke-opacity:1"
       d="M 83.726977,89.925977 C 85.937133,87.16992 131.83759,28.847994 131.83759,28.847994"
       id="path4192-3" />
    <path
       style="fill:none;fill-opacity:1;stroke:#ffffff;stroke-width:0.249;stroke-dasharray:none;stroke-opacity:1"
       d="M 26.410132,-5.4228521 C 26.923037,-4.9780941 109.80706,20.88681 109.80706,20.88681"
       id="path4194-8" />
    <path
       style="fill:none;fill-opacity:1;stroke:#ffffff;stroke-width:0.249;stroke-dasharray:none;stroke-opacity:1"
       d="M 21.447445,33.045758 58.599096,-25.134865"
       id="path4196-5" />
    <path
       style="fill:none;fill-opacity:1;stroke:#ffffff;stroke-width:0.249;stroke-dasharray:none;stroke-opacity:1"
       d="M 82.1511,-2.5555171 24.354145,34.667692"
       id="path4198-8" />
    <path
       style="fill:none;fill-opacity:1;stroke:#ffffff;stroke-width:0.249;stroke-dasharray:none;stroke-opacity:1"
       d="M 81.690435,82.948316 C 82.579952,81.922506 117.33207,18.426311 117.33207,18.426311"
       id="path4206-9" />
    <path
       style="fill:none;fill-opacity:1;stroke:#ffffff;stroke-width:0.249;stroke-dasharray:none;stroke-opacity:1"
       d="M -3.7463614,-23.729609 C 22.753794,101.14745 11.845784,92.587301 11.845784,92.587301"
       id="path4224-6" />
    <path
       style="fill:none;fill-opacity:1;stroke:#ffffff;stroke-width:0.249;stroke-dasharray:none;stroke-opacity:1"
       d="M 28.189807,41.228582 C 29.209161,40.67479 97.972975,-3.3926411 97.972975,-3.3926411"
       id="path4226-0" />
    <path
       style="fill:none;fill-opacity:1;stroke:#ffffff;stroke-width:0.249;stroke-dasharray:none;stroke-opacity:1"
       d="m 17.705065,10.211781 c 8.946789,1.288375 99.121275,6.517995 99.121275,6.517995"
       id="path4230-4" />
    <path
       style="fill:none;fill-opacity:1;stroke:#ffffff;stroke-width:0.249;stroke-dasharray:none;stroke-opacity:1"
       d="M 97.812991,6.5326149 C 95.459362,8.6251217 46.376055,49.270821 46.376055,49.270821"
       id="path4232-2" />
    <path
       style="fill:none;fill-opacity:1;stroke:#ffffff;stroke-width:0.249;stroke-dasharray:none;stroke-opacity:1"
       d="M 42.066212,50.925023 C 53.93405,51.33178 147.97939,33.859421 147.97939,33.859421"
       id="path4236-3" />
    <path
       style="fill:none;fill-opacity:1;stroke:#ffffff;stroke-width:0.249;stroke-dasharray:none;stroke-opacity:1"
       d="m 49.422865,14.793639 c 0,0.5431 62.321345,10.047455 62.321345,10.047455"
       id="path4178-3" />
    <path
       style="fill:none;fill-opacity:1;stroke:#ffffff;stroke-width:0.249;stroke-dasharray:none;stroke-opacity:1"
       d="m 73.224734,-23.850653 c 0,0 -30.95701,63.407583 -33.53676,64.765343"
       id="path4180-7" />
    <path
       style="fill:none;fill-opacity:1;stroke:#ffffff;stroke-width:0.249;stroke-dasharray:none;stroke-opacity:1"
       d="m 58.005812,8.823496 c 1.62931,1.35776 68.159748,13.170308 68.159748,13.170308"
       id="path4182-0" />
    <path
       style="fill:none;fill-opacity:1;stroke:#ffffff;stroke-width:0.249;stroke-dasharray:none;stroke-opacity:1"
       d="m 43.477742,-39.648678 21.04534,70.875282"
       id="path4186-0" />
    <path
       style="fill:none;fill-opacity:1;stroke:#ffffff;stroke-width:0.249;stroke-dasharray:none;stroke-opacity:1"
       d="m 54.678365,6.4052265 c 0.13577,0.950435 19.0087,122.7418535 19.0087,122.7418535"
       id="path4188-1" />
    <path
       style="fill:none;fill-opacity:1;stroke:#ffffff;stroke-width:0.249;stroke-dasharray:none;stroke-opacity:1"
       d="M 92.832462,-1.156069 139.81109,41.477724"
       id="path4190-0" />
    <path
       style="fill:none;fill-opacity:1;stroke:#ffffff;stroke-width:0.249;stroke-dasharray:none;stroke-opacity:1"
       d="m 49.857388,16.925131 c 3.53018,-0.13578 77.664092,-3.66597 77.664092,-3.66597"
       id="path4192-30" />
    <path
       style="fill:none;fill-opacity:1;stroke:#ffffff;stroke-width:0.249;stroke-dasharray:none;stroke-opacity:1"
       d="m 36.553142,-42.907307 c 0,0.678882 34.75876,80.243841 34.75876,80.243841"
       id="path4194-0" />
    <path
       style="fill:none;fill-opacity:1;stroke:#ffffff;stroke-width:0.249;stroke-dasharray:none;stroke-opacity:1"
       d="M -3.9082207,17.784744 64.387302,7.737282"
       id="path4196-3" />
    <path
       style="fill:none;fill-opacity:1;stroke:#ffffff;stroke-width:0.249;stroke-dasharray:none;stroke-opacity:1"
       d="M 81.155692,22.876354 15.168363,3.596105"
       id="path4198-83" />
    <path
       style="fill:none;fill-opacity:1;stroke:#ffffff;stroke-width:0.249;stroke-dasharray:none;stroke-opacity:1"
       d="M -8.654287,18.557458 65.47963,15.570378"
       id="path4200-6" />
    <path
       style="fill:none;fill-opacity:1;stroke:#ffffff;stroke-width:0.249;stroke-dasharray:none;stroke-opacity:1"
       d="M 52.509961,25.161852 120.80548,15.11439"
       id="path4196-3-8" />
    <path
       style="fill:none;fill-opacity:1;stroke:#ffffff;stroke-width:0.249;stroke-dasharray:none;stroke-opacity:1"
       d="m 44.765848,25.934566 74.133922,-2.98708"
       id="path4200-6-6" />
    <path
       style="fill:none;fill-opacity:1;stroke:#ffffff;stroke-width:0.249;stroke-dasharray:none;stroke-opacity:1"
       d="m 85.065852,-61.603913 c 0.81466,2.036646 -7.73926,128.037137 -7.73926,128.037137"
       id="path4202-0" />
    <path
       style="fill:none;fill-opacity:1;stroke:#ffffff;stroke-width:0.249;stroke-dasharray:none;stroke-opacity:1"
       d="M 92.153582,21.790144 135.46624,-24.238059"
       id="path4204-4" />
    <path
       style="fill:none;fill-opacity:1;stroke:#ffffff;stroke-width:0.249;stroke-dasharray:none;stroke-opacity:1"
       d="m 69.750472,16.766414 c 1.35777,0 72.097268,-15.342728 72.097268,-15.342728"
       id="path4206-0" />
    <path
       style="fill:none;fill-opacity:1;stroke:#ffffff;stroke-width:0.249;stroke-dasharray:none;stroke-opacity:1"
       d="M 93.692202,-37.317674 C 16.706983,64.514624 16.028103,50.665434 16.028103,50.665434"
       id="path4224-9" />
    <path
       style="fill:none;fill-opacity:1;stroke:#ffffff;stroke-width:0.249;stroke-dasharray:none;stroke-opacity:1"
       d="M 14.750067,9.6680419 C 15.836277,10.075372 94.179255,33.15735 94.179255,33.15735"
       id="path4226-2" />
    <path
       style="fill:none;fill-opacity:1;stroke:#ffffff;stroke-width:0.249;stroke-dasharray:none;stroke-opacity:1"
       d="M 86.111122,-0.680444 C 85.024912,-0.816224 -0.78577275,16.020054 -0.78577275,16.020054"
       id="path4228-4" />
    <path
       style="fill:none;fill-opacity:1;stroke:#ffffff;stroke-width:0.249;stroke-dasharray:none;stroke-opacity:1"
       d="m -25.993567,-4.0365033 c 4.88795,7.603482 60.01316,79.1576423 60.01316,79.1576423"
       id="path4230-9" />
    <path
       style="fill:none;fill-opacity:1;stroke:#ffffff;stroke-width:0.249;stroke-dasharray:none;stroke-opacity:1"
       d="M 103.15146,39.25725 C 100.0286,38.84992 37.164132,28.395141 37.164132,28.395141"
       id="path4232-29" />
    <path
       style="fill:none;fill-opacity:1;stroke:#ffffff;stroke-width:0.249;stroke-dasharray:none;stroke-opacity:1"
       d="m 110.61916,-8.895327 c -4.20907,2.71553 -84.588688,35.980751 -84.588688,35.980751"
       id="path4234-1" />
    <path
       style="fill:none;fill-opacity:1;stroke:#ffffff;stroke-width:0.249;stroke-dasharray:none;stroke-opacity:1"
       d="m 55.833392,-28.650788 c 7.4677,9.23279 82.280488,68.838632 82.280488,68.838632"
       id="path4236-0" />
    <path
       style="fill:none;fill-opacity:1;stroke:#ffffff;stroke-width:0.249;stroke-dasharray:none;stroke-opacity:1"
       d="m 70.722952,-9.076625 c -0.35581,0.41032 40.502228,48.419759 40.502228,48.419759"
       id="path4178-9-9" />
    <path
       style="fill:none;fill-opacity:1;stroke:#ffffff;stroke-width:0.249;stroke-dasharray:none;stroke-opacity:1"
       d="m 94.988268,0.26300297 c 0,0 -64.928838,27.62432903 -67.767388,26.96005903"
       id="path4180-5-3" />
    <path
       style="fill:none;fill-opacity:1;stroke:#ffffff;stroke-width:0.249;stroke-dasharray:none;stroke-opacity:1"
       d="m 91.512012,7.153014 c 0.34145,2.09323 42.867318,54.60404 42.867318,54.60404"
       id="path4182-3-0" />
    <path
       style="fill:none;fill-opacity:1;stroke:#ffffff;stroke-width:0.249;stroke-dasharray:none;stroke-opacity:1"
       d="M 54.175573,-3.0096304 23.642895,64.325108"
       id="path4186-3-0" />
    <path
       style="fill:none;fill-opacity:1;stroke:#ffffff;stroke-width:0.249;stroke-dasharray:none;stroke-opacity:1"
       d="m 105.17464,23.313504 c 2.75605,2.21015 61.07798,48.1106 61.07798,48.1106"
       id="path4192-3-3" />
    <path
       style="fill:none;fill-opacity:1;stroke:#ffffff;stroke-width:0.249;stroke-dasharray:none;stroke-opacity:1"
       d="m 89.361536,-18.771624 c -0.44476,0.51291 -26.309668,83.39693 -26.309668,83.39693"
       id="path4194-8-0" />
    <path
       style="fill:none;fill-opacity:1;stroke:#ffffff;stroke-width:0.249;stroke-dasharray:none;stroke-opacity:1"
       d="m 38.864302,-26.638565 58.18062,37.15166"
       id="path4196-5-1" />
    <path
       style="fill:none;fill-opacity:1;stroke:#ffffff;stroke-width:0.249;stroke-dasharray:none;stroke-opacity:1"
       d="M 99.795572,32.936384 62.572352,-24.860571"
       id="path4198-8-9" />
    <path
       style="fill:none;fill-opacity:1;stroke:#ffffff;stroke-width:0.249;stroke-dasharray:none;stroke-opacity:1"
       d="m 95.181592,20.848314 c 1.02581,0.88952 64.521998,35.64164 64.521998,35.64164"
       id="path4206-9-8" />
    <path
       style="fill:none;fill-opacity:1;stroke:#ffffff;stroke-width:0.249;stroke-dasharray:none;stroke-opacity:1"
       d="M 136.05375,29.477585 C 11.17669,55.977733 19.73684,45.069725 19.73684,45.069725"
       id="path4224-6-6" />
    <path
       style="fill:none;fill-opacity:1;stroke:#ffffff;stroke-width:0.249;stroke-dasharray:none;stroke-opacity:1"
       d="m 68.702122,-27.991788 c 0.55379,1.01935 44.621218,69.783162 44.621218,69.783162"
       id="path4226-0-9" />
    <path
       style="fill:none;fill-opacity:1;stroke:#ffffff;stroke-width:0.249;stroke-dasharray:none;stroke-opacity:1"
       d="m 98.456042,-48.108041 c -1.28838,8.94679 -6.518,99.121275 -6.518,99.121275"
       id="path4230-4-0" />
    <path
       style="fill:none;fill-opacity:1;stroke:#ffffff;stroke-width:0.249;stroke-dasharray:none;stroke-opacity:1"
       d="M 121.39496,41.602014 C 119.30246,39.248384 78.656762,-9.83493 78.656762,-9.83493"
       id="path4232-2-1" />
    <path
       style="fill:none;fill-opacity:1;stroke:#ffffff;stroke-width:0.249;stroke-dasharray:none;stroke-opacity:1"
       d="m 114.42484,-22.579049 c -0.40676,11.86784 17.0656,105.913183 17.0656,105.913183"
       id="path4236-3-6" />
    <path
       style="fill:none;fill-opacity:1;stroke:#ffffff;stroke-width:0.249;stroke-dasharray:none;stroke-opacity:1"
       d="m 62.462468,3.3411514 c 0.34145,2.09323 42.867322,54.6040396 42.867322,54.6040396"
       id="path4182-3-0-52" />
    <path
       style="fill:none;fill-opacity:1;stroke:#ffffff;stroke-width:0.249;stroke-dasharray:none;stroke-opacity:1"
       d="M 56.740722,7.2578494 C 57.663197,8.1803254 54.89577,31.472843 54.89577,31.472843"
       id="path4551-3" />
    <path
       style="fill:none;fill-opacity:1;stroke:#ffffff;stroke-width:0.249;stroke-dasharray:none;stroke-opacity:1"
       d="M 78.649527,12.331467 56.971341,25.707368"
       id="path4555-87" />
    <path
       style="fill:none;fill-opacity:1;stroke:#ffffff;stroke-width:0.249;stroke-dasharray:none;stroke-opacity:1"
       d="M 77.265817,11.178372 C 74.959627,17.635704 63.428672,34.701508 63.428672,34.701508"
       id="path4600-8" />
    <path
       style="fill:none;fill-opacity:1;stroke:#ffffff;stroke-width:0.249;stroke-dasharray:none;stroke-opacity:1"
       d="M 81.416957,29.62789 C 80.033247,29.166653 55.587626,19.019418 55.587626,19.019418"
       id="path4602-0" />
    <path
       style="fill:none;fill-opacity:1;stroke:#ffffff;stroke-width:0.249;stroke-dasharray:none;stroke-opacity:1"
       d="M 60.430625,31.703462 C 61.122484,29.62789 62.275578,7.4884684 62.275578,7.4884684"
       id="path4604-4" />
    <path
       style="fill:none;fill-opacity:1;stroke:#ffffff;stroke-width:0.249;stroke-dasharray:none;stroke-opacity:1"
       d="M 74.267767,28.013559 C 68.041057,27.321702 53.281438,22.017464 53.281438,22.017464"
       id="path4606-5" />
    <path
       style="fill:none;fill-opacity:1;stroke:#ffffff;stroke-width:0.249;stroke-dasharray:none;stroke-opacity:1"
       d="M -14.528997,24.676233 C -13.606521,28.135516 23.0619,64.112081 23.0619,64.112081"
       id="path4517" />
    <path
       style="fill:none;fill-opacity:1;stroke:#ffffff;stroke-width:0.249;stroke-dasharray:none;stroke-opacity:1"
       d="M 5.534856,56.732272 17.757663,-22.139423"
       id="path4519" />
    <path
       style="fill:none;fill-opacity:1;stroke:#ffffff;stroke-width:0.249;stroke-dasharray:none;stroke-opacity:1"
       d="M -10.608474,21.908804 C -6.6879509,23.292519 45.662561,53.04237 45.662561,53.04237"
       id="path4521" />
    <path
       style="fill:none;fill-opacity:1;stroke:#ffffff;stroke-width:0.249;stroke-dasharray:none;stroke-opacity:1"
       d="M 65.957034,55.117938 C 65.265175,51.889273 31.825422,-8.0716648 31.825422,-8.0716648"
       id="path4523" />
    <path
       style="fill:none;fill-opacity:1;stroke:#ffffff;stroke-width:0.249;stroke-dasharray:none;stroke-opacity:1"
       d="M 67.571365,-20.52509 C 56.732272,-4.6123799 25.829327,60.191557 25.829327,60.191557"
       id="path4525" />
    <path
       style="fill:none;fill-opacity:1;stroke:#ffffff;stroke-width:0.249;stroke-dasharray:none;stroke-opacity:1"
       d="M 107.00721,9.4553787 C 90.402647,21.216948 -2.30619,38.052134 -2.30619,38.052134"
       id="path4527" />
    <path
       style="fill:none;fill-opacity:1;stroke:#ffffff;stroke-width:0.249;stroke-dasharray:none;stroke-opacity:1"
       d="m 3.689904,-12.914664 c 0.230619,3.4592853 56.271034,83.022838 56.271034,83.022838"
       id="path4529" />
    <path
       style="fill:none;fill-opacity:1;stroke:#ffffff;stroke-width:0.249;stroke-dasharray:none;stroke-opacity:1"
       d="m 115.07888,50.736179 c -9.686,-0.691856 -129.838496,-67.571366 -129.838496,-67.571366"
       id="path4531" />
    <path
       style="fill:none;fill-opacity:1;stroke:#ffffff;stroke-width:0.249;stroke-dasharray:none;stroke-opacity:1"
       d="M -37.360277,58.807844 C -12.453426,45.89318 53.964845,-15.220854 53.964845,-15.220854"
       id="path4533" />
    <path
       style="fill:none;fill-opacity:1;stroke:#ffffff;stroke-width:0.249;stroke-dasharray:none;stroke-opacity:1"
       d="m 31.133565,76.104267 c -4.151143,-12.914664 -46.1238,-89.480169 -46.1238,-89.480169"
       id="path4535" />
    <path
       style="fill:none;fill-opacity:1;stroke:#ffffff;stroke-width:0.249;stroke-dasharray:none;stroke-opacity:1"
       d="M 9.4553787,62.497747 C 10.147236,57.19351 -10.839093,17.296425 -10.839093,17.296425"
       id="path4537" />
    <path
       style="fill:none;fill-opacity:1;stroke:#ffffff;stroke-width:0.249;stroke-dasharray:none;stroke-opacity:1"
       d="M 28.827375,-4.1511418 7.8410458,55.34856"
       id="path4539" />
    <path
       style="fill:none;fill-opacity:1;stroke:#ffffff;stroke-width:0.249;stroke-dasharray:none;stroke-opacity:1"
       d="M 110.23588,2.30619 C 109.54402,7.3798077 57.885369,58.577225 57.885369,58.577225"
       id="path4541" />
    <path
       style="fill:none;fill-opacity:1;stroke:#ffffff;stroke-width:0.249;stroke-dasharray:none;stroke-opacity:1"
       d="M 91.555741,64.803937 83.022838,-5.7654748"
       id="path4543" />
    <path
       style="fill:none;fill-opacity:1;stroke:#ffffff;stroke-width:0.249;stroke-dasharray:none;stroke-opacity:1"
       d="m 122.91993,38.974609 c -2.99805,0 -137.910165,-40.127704 -137.910165,-40.127704"
       id="path4545" />
    <path
       style="fill:none;fill-opacity:1;stroke:#ffffff;stroke-width:0.249;stroke-dasharray:none;stroke-opacity:1"
       d="m 14.298378,-13.145283 c -3.228666,7.610427 -32.978516,59.4997 -32.978516,59.4997"
       id="path4547" />
    <path
       style="fill:none;fill-opacity:1;stroke:#ffffff;stroke-width:0.249;stroke-dasharray:none;stroke-opacity:1"
       d="M -35.054088,31.364182 C -32.978517,29.98047 101.93359,20.294472 101.93359,20.294472"
       id="path4549" />
    <path
       style="fill:none;fill-opacity:1;stroke:#ffffff;stroke-width:0.249;stroke-dasharray:none;stroke-opacity:1"
       d="M 76.600791,7.4922932 C 76.259341,9.5855232 33.733473,62.096333 33.733473,62.096333"
       id="path4182-3-0-7" />
    <path
       style="fill:none;fill-opacity:1;stroke:#ffffff;stroke-width:0.249;stroke-dasharray:none;stroke-opacity:1"
       d="m 82.322537,11.408991 c -0.922475,0.922476 1.844952,24.214994 1.844952,24.214994"
       id="path4551-1" />
    <path
       style="fill:none;fill-opacity:1;stroke:#ffffff;stroke-width:0.249;stroke-dasharray:none;stroke-opacity:1"
       d="M 60.413733,16.482609 82.091918,29.85851"
       id="path4555-0" />
    <path
       style="fill:none;fill-opacity:1;stroke:#ffffff;stroke-width:0.249;stroke-dasharray:none;stroke-opacity:1"
       d="m 61.797443,15.329514 c 2.30619,6.457332 13.837144,23.523136 13.837144,23.523136"
       id="path4600-6" />
    <path
       style="fill:none;fill-opacity:1;stroke:#ffffff;stroke-width:0.249;stroke-dasharray:none;stroke-opacity:1"
       d="M 57.646303,33.779032 C 59.030013,33.317795 83.475633,23.17056 83.475633,23.17056"
       id="path4602-03" />
    <path
       style="fill:none;fill-opacity:1;stroke:#ffffff;stroke-width:0.249;stroke-dasharray:none;stroke-opacity:1"
       d="M 78.632634,35.854604 C 77.940775,33.779032 76.787681,11.63961 76.787681,11.63961"
       id="path4604-35" />
    <path
       style="fill:none;fill-opacity:1;stroke:#ffffff;stroke-width:0.249;stroke-dasharray:none;stroke-opacity:1"
       d="m 64.795493,32.164701 c 6.226713,-0.691857 20.986328,-5.996095 20.986328,-5.996095"
       id="path4606-02" />
    <path
       style="fill:none;fill-opacity:1;stroke:#ffffff;stroke-width:0.249;stroke-dasharray:none;stroke-opacity:1"
       d="m 85.790266,11.069712 c 0.922475,0.922476 -1.844952,24.214994 -1.844952,24.214994"
       id="path4551" />
    <path
       style="fill:none;fill-opacity:1;stroke:#ffffff;stroke-width:0.249;stroke-dasharray:none;stroke-opacity:1"
       d="M 59.960936,32.28666 38.513371,16.373949"
       id="path4553" />
    <path
       style="fill:none;fill-opacity:1;stroke:#ffffff;stroke-width:0.249;stroke-dasharray:none;stroke-opacity:1"
       d="M 107.69907,16.14333 86.020885,29.519231"
       id="path4555" />
    <path
       style="fill:none;fill-opacity:1;stroke:#ffffff;stroke-width:0.249;stroke-dasharray:none;stroke-opacity:1"
       d="m 13.145283,15.220854 c 0.461238,0.922476 12.914663,11.300331 12.914663,11.300331"
       id="path4557" />
    <path
       style="fill:none;fill-opacity:1;stroke:#ffffff;stroke-width:0.249;stroke-dasharray:none;stroke-opacity:1"
       d="M 27.674279,15.451473 9.916617,32.056041"
       id="path4559" />
    <path
       style="fill:none;fill-opacity:1;stroke:#ffffff;stroke-width:0.249;stroke-dasharray:none;stroke-opacity:1"
       d="m 69.1857,34.362231 c -1.383716,0 -28.596757,-11.53095 -28.596757,-11.53095"
       id="path4561" />
    <path
       style="fill:none;fill-opacity:1;stroke:#ffffff;stroke-width:0.249;stroke-dasharray:none;stroke-opacity:1"
       d="M 58.346605,35.054086 48.660609,19.833234"
       id="path4563" />
    <path
       style="fill:none;fill-opacity:1;stroke:#ffffff;stroke-width:0.249;stroke-dasharray:none;stroke-opacity:1"
       d="M 35.976563,18.449519 C 34.82347,20.75571 26.982422,43.125751 26.982422,43.125751"
       id="path4565" />
    <path
       style="fill:none;fill-opacity:1;stroke:#ffffff;stroke-width:0.249;stroke-dasharray:none;stroke-opacity:1"
       d="m 8.0716648,3.689904 c 0,1.1530949 2.3061902,28.827374 2.3061902,28.827374"
       id="path4567" />
    <path
       style="fill:none;fill-opacity:1;stroke:#ffffff;stroke-width:0.249;stroke-dasharray:none;stroke-opacity:1"
       d="M 61.344653,38.74399 C 65.726412,38.513371 77.94922,37.129659 77.94922,37.129659"
       id="path4569" />
    <path
       style="fill:none;fill-opacity:1;stroke:#ffffff;stroke-width:0.249;stroke-dasharray:none;stroke-opacity:1"
       d="M 42.433895,4.1511419 C 41.972657,10.147236 45.201323,21.216947 45.201323,21.216947"
       id="path4571" />
    <path
       style="fill:none;fill-opacity:1;stroke:#ffffff;stroke-width:0.249;stroke-dasharray:none;stroke-opacity:1"
       d="M 106.31536,14.990235 C 104.00917,21.447567 92.478216,38.513371 92.478216,38.513371"
       id="path4600" />
    <path
       style="fill:none;fill-opacity:1;stroke:#ffffff;stroke-width:0.249;stroke-dasharray:none;stroke-opacity:1"
       d="M 110.4665,33.439753 C 109.08279,32.978516 84.63717,22.831281 84.63717,22.831281"
       id="path4602" />
    <path
       style="fill:none;fill-opacity:1;stroke:#ffffff;stroke-width:0.249;stroke-dasharray:none;stroke-opacity:1"
       d="m 89.480169,35.515325 c 0.691859,-2.075572 1.844953,-24.214994 1.844953,-24.214994"
       id="path4604" />
    <path
       style="fill:none;fill-opacity:1;stroke:#ffffff;stroke-width:0.249;stroke-dasharray:none;stroke-opacity:1"
       d="M 103.31731,31.825422 C 97.090597,31.133565 82.330982,25.829327 82.330982,25.829327"
       id="path4606" />
    <path
       style="fill:none;fill-opacity:1;stroke:#ffffff;stroke-width:0.249;stroke-dasharray:none;stroke-opacity:1"
       d="M 3.6546236,6.5698169 C 3.9960736,8.6630469 46.521943,61.173857 46.521943,61.173857"
       id="path4182-3-0-0" />
    <path
       style="fill:none;fill-opacity:1;stroke:#ffffff;stroke-width:0.249;stroke-dasharray:none;stroke-opacity:1"
       d="m -2.0671224,10.486515 c 0.922475,0.922476 -1.844952,24.214994 -1.844952,24.214994"
       id="path4551-8" />
    <path
       style="fill:none;fill-opacity:1;stroke:#ffffff;stroke-width:0.249;stroke-dasharray:none;stroke-opacity:1"
       d="M 19.841682,15.560133 -1.8365034,28.936034"
       id="path4555-1" />
    <path
       style="fill:none;fill-opacity:1;stroke:#ffffff;stroke-width:0.249;stroke-dasharray:none;stroke-opacity:1"
       d="M 18.457972,14.407038 C 16.151782,20.86437 4.6208276,37.930174 4.6208276,37.930174"
       id="path4600-0" />
    <path
       style="fill:none;fill-opacity:1;stroke:#ffffff;stroke-width:0.249;stroke-dasharray:none;stroke-opacity:1"
       d="M 22.609112,32.856556 C 21.225402,32.395319 -3.2202184,22.248084 -3.2202184,22.248084"
       id="path4602-3" />
    <path
       style="fill:none;fill-opacity:1;stroke:#ffffff;stroke-width:0.249;stroke-dasharray:none;stroke-opacity:1"
       d="m 1.6227806,34.932128 c 0.691859,-2.075572 1.844953,-24.214994 1.844953,-24.214994"
       id="path4604-1" />
    <path
       style="fill:none;fill-opacity:1;stroke:#ffffff;stroke-width:0.249;stroke-dasharray:none;stroke-opacity:1"
       d="M 15.459922,31.242225 C 9.2332086,30.550368 -5.5264064,25.24613 -5.5264064,25.24613"
       id="path4606-1" />
    <path
       style="fill:none;fill-opacity:1;stroke:#ffffff;stroke-width:0.249;stroke-dasharray:none;stroke-opacity:1"
       d="M 29.508542,4.5709257 C 29.050276,6.6417206 49.09832,71.170091 49.09832,71.170091"
       id="path4182-3-0-5" />
    <path
       style="fill:none;fill-opacity:1;stroke:#ffffff;stroke-width:0.249;stroke-dasharray:none;stroke-opacity:1"
       d="M 22.742954,6.0893833 C 23.258074,7.2879548 12.058963,27.898146 12.058963,27.898146"
       id="path4551-0" />
    <path
       style="fill:none;fill-opacity:1;stroke:#ffffff;stroke-width:0.249;stroke-dasharray:none;stroke-opacity:1"
       d="M 41.213561,18.918022 16.122652,23.311739"
       id="path4555-8" />
    <path
       style="fill:none;fill-opacity:1;stroke:#ffffff;stroke-width:0.249;stroke-dasharray:none;stroke-opacity:1"
       d="M 40.355452,17.334377 C 35.821257,22.477987 18.788751,34.058069 18.788751,34.058069"
       id="path4600-4" />
    <path
       style="fill:none;fill-opacity:1;stroke:#ffffff;stroke-width:0.249;stroke-dasharray:none;stroke-opacity:1"
       d="M 37.376746,36.009066 C 36.262343,35.068056 17.314893,16.587016 17.314893,16.587016"
       id="path4602-9" />
    <path
       style="fill:none;fill-opacity:1;stroke:#ffffff;stroke-width:0.249;stroke-dasharray:none;stroke-opacity:1"
       d="M 17.114608,30.162711 C 18.526128,28.491101 27.7986,8.3539488 27.7986,8.3539488"
       id="path4604-3" />
    <path
       style="fill:none;fill-opacity:1;stroke:#ffffff;stroke-width:0.249;stroke-dasharray:none;stroke-opacity:1"
       d="M 31.334206,31.861212 C 25.806788,28.911929 14.062171,18.517452 14.062171,18.517452"
       id="path4606-0" />
  </g>
</svg>
